M48
; DRILL file {KiCad 8.0.8} date 2025-01-20T13:06:55+0800
; FORMAT={-:-/ absolute / inch / decimal}
; #@! TF.CreationDate,2025-01-20T13:06:55+08:00
; #@! TF.GenerationSoftware,Kicad,Pcbnew,8.0.8
; #@! TF.FileFunction,Plated,1,2,PTH
FMAT,2
INCH
; #@! TA.AperFunction,Plated,PTH,ComponentDrill
T1C0.0413
; #@! TA.AperFunction,Plated,PTH,ComponentDrill
T2C0.0433
; #@! TA.AperFunction,Plated,PTH,ComponentDrill
T3C0.0630
%
G90
G05
T1
X6.1276Y-2.8
X6.1276Y-2.9
X6.1276Y-3.0
X6.1276Y-3.1
X6.1276Y-3.5055
X6.1276Y-3.6055
X6.1276Y-3.7055
X6.1276Y-3.8055
X6.1669Y-5.2378
X6.1669Y-5.3378
X6.1669Y-5.4378
X6.1669Y-5.5378
T2
X3.4827Y-3.0157
X3.4827Y-3.6154
X3.4827Y-4.9677
X3.4827Y-5.5673
X3.5827Y-3.0157
X3.5827Y-3.6154
X3.5827Y-4.9677
X3.5827Y-5.5673
X3.6827Y-3.0157
X3.6827Y-3.6154
X3.6827Y-4.9677
X3.6827Y-5.5673
X3.7827Y-3.0157
X3.7827Y-3.6154
X3.7827Y-4.9677
X3.7827Y-5.5673
X3.8827Y-3.0157
X3.8827Y-3.6154
X3.8827Y-4.9677
X3.8827Y-5.5673
X3.9827Y-3.0157
X3.9827Y-3.6154
X3.9827Y-4.9677
X3.9827Y-5.5673
X4.0827Y-3.0157
X4.0827Y-3.6154
X4.0827Y-4.9677
X4.0827Y-5.5673
X4.1827Y-3.0157
X4.1827Y-3.6154
X4.1827Y-4.9677
X4.1827Y-5.5673
X4.2827Y-3.0157
X4.2827Y-3.6154
X4.2827Y-4.9677
X4.2827Y-5.5673
X4.3827Y-3.0157
X4.3827Y-3.6154
X4.3827Y-4.9677
X4.3827Y-5.5673
X4.474Y-3.8449
X4.474Y-3.9449
X4.474Y-4.0449
X4.474Y-4.1449
X4.474Y-4.3961
X4.474Y-4.4961
X4.474Y-4.5961
X4.474Y-4.6961
X4.4827Y-3.0157
X4.4827Y-3.6154
X4.4827Y-4.9677
X4.4827Y-5.5673
X4.5827Y-3.0157
X4.5827Y-3.6154
X4.5827Y-4.9677
X4.5827Y-5.5673
X4.6827Y-3.0157
X4.6827Y-3.6154
X4.6827Y-4.9677
X4.6827Y-5.5673
X4.7827Y-3.0157
X4.7827Y-3.6154
X4.7827Y-4.9677
X4.7827Y-5.5673
X4.8827Y-3.0157
X4.8827Y-3.6154
X4.8827Y-4.9677
X4.8827Y-5.5673
X4.9827Y-3.0157
X4.9827Y-3.6154
X4.9827Y-4.9677
X4.9827Y-5.5673
X5.0827Y-3.0157
X5.0827Y-3.6154
X5.0827Y-4.9677
X5.0827Y-5.5673
X5.1827Y-3.0157
X5.1827Y-3.6154
X5.1827Y-4.9677
X5.1827Y-5.5673
X5.2824Y-3.1156
X5.2824Y-3.2156
X5.2824Y-3.3156
X5.2824Y-3.4156
X5.2825Y-5.0675
X5.2825Y-5.1675
X5.2825Y-5.2675
X5.2825Y-5.3675
X5.2827Y-3.0157
X5.2827Y-3.6154
X5.2827Y-4.9677
X5.2827Y-5.5673
X5.3827Y-3.0157
X5.3827Y-3.6154
X5.3827Y-4.9677
X5.3827Y-5.5673
X5.4827Y-3.0157
X5.4827Y-3.6154
X5.4827Y-4.9677
X5.4827Y-5.5673
X5.5827Y-3.0157
X5.5827Y-3.6154
X5.5827Y-4.9677
X5.5827Y-5.5673
X5.6827Y-3.0157
X5.6827Y-3.6154
X5.6827Y-4.9677
X5.6827Y-5.5673
X5.6917Y-3.8472
X5.6917Y-3.9472
X5.6917Y-4.0472
X5.6917Y-4.1472
X5.6917Y-4.3988
X5.6917Y-4.4988
X5.6917Y-4.5988
X5.6917Y-4.6988
X5.7827Y-3.0157
X5.7827Y-3.6154
X5.7827Y-4.9677
X5.7827Y-5.5673
T3
X3.0961Y-2.6638
X3.0961Y-2.8606
X3.0961Y-3.8449
X3.0961Y-4.0417
X3.0961Y-4.5142
X3.0961Y-4.711
X3.0961Y-5.6559
X3.0961Y-5.8528
X6.1024Y-4.4528
X6.1024Y-4.6496
M30
