%TF.GenerationSoftware,KiCad,Pcbnew,8.0.8*%
%TF.CreationDate,2025-01-20T13:06:56+08:00*%
%TF.ProjectId,project_pcb,70726f6a-6563-4745-9f70-63622e6b6963,rev?*%
%TF.SameCoordinates,Original*%
%TF.FileFunction,Drillmap*%
%TF.FilePolarity,Positive*%
%FSLAX45Y45*%
G04 Gerber Fmt 4.5, Leading zero omitted, Abs format (unit mm)*
G04 Created by KiCad (PCBNEW 8.0.8) date 2025-01-20 13:06:56*
%MOMM*%
%LPD*%
G01*
G04 APERTURE LIST*
%ADD10C,0.200000*%
G04 APERTURE END LIST*
D10*
X7114000Y-6316000D02*
X16214000Y-6316000D01*
X16214000Y-15316000D01*
X7114000Y-15316000D01*
X7114000Y-6316000D01*
X7364777Y-15637484D02*
X7364777Y-15437484D01*
X7364777Y-15437484D02*
X7412396Y-15437484D01*
X7412396Y-15437484D02*
X7440967Y-15447008D01*
X7440967Y-15447008D02*
X7460015Y-15466055D01*
X7460015Y-15466055D02*
X7469539Y-15485103D01*
X7469539Y-15485103D02*
X7479062Y-15523198D01*
X7479062Y-15523198D02*
X7479062Y-15551769D01*
X7479062Y-15551769D02*
X7469539Y-15589865D01*
X7469539Y-15589865D02*
X7460015Y-15608912D01*
X7460015Y-15608912D02*
X7440967Y-15627960D01*
X7440967Y-15627960D02*
X7412396Y-15637484D01*
X7412396Y-15637484D02*
X7364777Y-15637484D01*
X7564777Y-15637484D02*
X7564777Y-15504150D01*
X7564777Y-15542246D02*
X7574301Y-15523198D01*
X7574301Y-15523198D02*
X7583824Y-15513674D01*
X7583824Y-15513674D02*
X7602872Y-15504150D01*
X7602872Y-15504150D02*
X7621920Y-15504150D01*
X7688586Y-15637484D02*
X7688586Y-15504150D01*
X7688586Y-15437484D02*
X7679062Y-15447008D01*
X7679062Y-15447008D02*
X7688586Y-15456531D01*
X7688586Y-15456531D02*
X7698110Y-15447008D01*
X7698110Y-15447008D02*
X7688586Y-15437484D01*
X7688586Y-15437484D02*
X7688586Y-15456531D01*
X7812396Y-15637484D02*
X7793348Y-15627960D01*
X7793348Y-15627960D02*
X7783824Y-15608912D01*
X7783824Y-15608912D02*
X7783824Y-15437484D01*
X7917158Y-15637484D02*
X7898110Y-15627960D01*
X7898110Y-15627960D02*
X7888586Y-15608912D01*
X7888586Y-15608912D02*
X7888586Y-15437484D01*
X8145729Y-15637484D02*
X8145729Y-15437484D01*
X8145729Y-15437484D02*
X8212396Y-15580341D01*
X8212396Y-15580341D02*
X8279062Y-15437484D01*
X8279062Y-15437484D02*
X8279062Y-15637484D01*
X8460015Y-15637484D02*
X8460015Y-15532722D01*
X8460015Y-15532722D02*
X8450491Y-15513674D01*
X8450491Y-15513674D02*
X8431444Y-15504150D01*
X8431444Y-15504150D02*
X8393348Y-15504150D01*
X8393348Y-15504150D02*
X8374301Y-15513674D01*
X8460015Y-15627960D02*
X8440967Y-15637484D01*
X8440967Y-15637484D02*
X8393348Y-15637484D01*
X8393348Y-15637484D02*
X8374301Y-15627960D01*
X8374301Y-15627960D02*
X8364777Y-15608912D01*
X8364777Y-15608912D02*
X8364777Y-15589865D01*
X8364777Y-15589865D02*
X8374301Y-15570817D01*
X8374301Y-15570817D02*
X8393348Y-15561293D01*
X8393348Y-15561293D02*
X8440967Y-15561293D01*
X8440967Y-15561293D02*
X8460015Y-15551769D01*
X8555253Y-15504150D02*
X8555253Y-15704150D01*
X8555253Y-15513674D02*
X8574301Y-15504150D01*
X8574301Y-15504150D02*
X8612396Y-15504150D01*
X8612396Y-15504150D02*
X8631444Y-15513674D01*
X8631444Y-15513674D02*
X8640967Y-15523198D01*
X8640967Y-15523198D02*
X8650491Y-15542246D01*
X8650491Y-15542246D02*
X8650491Y-15599388D01*
X8650491Y-15599388D02*
X8640967Y-15618436D01*
X8640967Y-15618436D02*
X8631444Y-15627960D01*
X8631444Y-15627960D02*
X8612396Y-15637484D01*
X8612396Y-15637484D02*
X8574301Y-15637484D01*
X8574301Y-15637484D02*
X8555253Y-15627960D01*
X8736205Y-15618436D02*
X8745729Y-15627960D01*
X8745729Y-15627960D02*
X8736205Y-15637484D01*
X8736205Y-15637484D02*
X8726682Y-15627960D01*
X8726682Y-15627960D02*
X8736205Y-15618436D01*
X8736205Y-15618436D02*
X8736205Y-15637484D01*
X8736205Y-15513674D02*
X8745729Y-15523198D01*
X8745729Y-15523198D02*
X8736205Y-15532722D01*
X8736205Y-15532722D02*
X8726682Y-15523198D01*
X8726682Y-15523198D02*
X8736205Y-15513674D01*
X8736205Y-15513674D02*
X8736205Y-15532722D01*
M02*
