%TF.GenerationSoftware,KiCad,Pcbnew,8.0.8*%
%TF.CreationDate,2025-01-20T13:06:51+08:00*%
%TF.ProjectId,project_pcb,70726f6a-6563-4745-9f70-63622e6b6963,rev?*%
%TF.SameCoordinates,Original*%
%TF.FileFunction,Soldermask,Bot*%
%TF.FilePolarity,Negative*%
%FSLAX46Y46*%
G04 Gerber Fmt 4.6, Leading zero omitted, Abs format (unit mm)*
G04 Created by KiCad (PCBNEW 8.0.8) date 2025-01-20 13:06:51*
%MOMM*%
%LPD*%
G01*
G04 APERTURE LIST*
%ADD10R,1.700000X1.700000*%
%ADD11C,1.700000*%
%ADD12C,2.400000*%
%ADD13R,1.700000X1.520000*%
%ADD14R,1.600000X1.600000*%
%ADD15C,1.600000*%
G04 APERTURE END LIST*
D10*
%TO.C,CN4*%
X134174400Y-128714400D03*
D11*
X134174400Y-131254400D03*
X134174400Y-133794400D03*
X134174400Y-136334400D03*
%TD*%
D10*
%TO.C,CN6*%
X134173700Y-79135300D03*
D11*
X134173700Y-81675300D03*
X134173700Y-84215300D03*
X134173700Y-86755300D03*
%TD*%
D12*
%TO.C,Kill_Switch2*%
X78640000Y-114660000D03*
X78640000Y-119660000D03*
%TD*%
%TO.C,Kill_Switch3*%
X78640000Y-97660000D03*
X78640000Y-102660000D03*
%TD*%
D13*
%TO.C,U4*%
X88460000Y-76600000D03*
D11*
X91000000Y-76600000D03*
X93540000Y-76600000D03*
X96080000Y-76600000D03*
X98620000Y-76600000D03*
X101160000Y-76600000D03*
X103700000Y-76600000D03*
X106240000Y-76600000D03*
X108780000Y-76600000D03*
X111320000Y-76600000D03*
X113860000Y-76600000D03*
X116400000Y-76600000D03*
X118940000Y-76600000D03*
X121480000Y-76600000D03*
X124020000Y-76600000D03*
X126560000Y-76600000D03*
X129100000Y-76600000D03*
X131640000Y-76600000D03*
X134180000Y-76600000D03*
X136720000Y-76600000D03*
X139260000Y-76600000D03*
X141800000Y-76600000D03*
X144340000Y-76600000D03*
X146880000Y-76600000D03*
%TD*%
D14*
%TO.C,CN3*%
X156640000Y-133040000D03*
D15*
X156640000Y-135580000D03*
X156640000Y-138120000D03*
X156640000Y-140660000D03*
%TD*%
D10*
%TO.C,DepthNA1*%
X113640000Y-111660000D03*
D11*
X113640000Y-114200000D03*
X113640000Y-116740000D03*
X113640000Y-119280000D03*
%TD*%
D12*
%TO.C,Kill_Switch4*%
X78640000Y-143660000D03*
X78640000Y-148660000D03*
%TD*%
D10*
%TO.C,Depth2*%
X144570000Y-97720000D03*
D11*
X144570000Y-100260000D03*
X144570000Y-102800000D03*
X144570000Y-105340000D03*
%TD*%
D14*
%TO.C,CN1*%
X155640000Y-89040000D03*
D15*
X155640000Y-91580000D03*
X155640000Y-94120000D03*
X155640000Y-96660000D03*
%TD*%
D10*
%TO.C,H1*%
X144570000Y-111730000D03*
D11*
X144570000Y-114270000D03*
X144570000Y-116810000D03*
X144570000Y-119350000D03*
%TD*%
D12*
%TO.C,Kill_Switch1*%
X155000000Y-118100000D03*
X155000000Y-113100000D03*
%TD*%
D10*
%TO.C,DepthNA2*%
X113640000Y-97660000D03*
D11*
X113640000Y-100200000D03*
X113640000Y-102740000D03*
X113640000Y-105280000D03*
%TD*%
D13*
%TO.C,U3*%
X88460000Y-91830000D03*
D11*
X91000000Y-91830000D03*
X93540000Y-91830000D03*
X96080000Y-91830000D03*
X98620000Y-91830000D03*
X101160000Y-91830000D03*
X103700000Y-91830000D03*
X106240000Y-91830000D03*
X108780000Y-91830000D03*
X111320000Y-91830000D03*
X113860000Y-91830000D03*
X116400000Y-91830000D03*
X118940000Y-91830000D03*
X121480000Y-91830000D03*
X124020000Y-91830000D03*
X126560000Y-91830000D03*
X129100000Y-91830000D03*
X131640000Y-91830000D03*
X134180000Y-91830000D03*
X136720000Y-91830000D03*
X139260000Y-91830000D03*
X141800000Y-91830000D03*
X144340000Y-91830000D03*
X146880000Y-91830000D03*
%TD*%
D12*
%TO.C,Kill_Switch5*%
X78640000Y-67660000D03*
X78640000Y-72660000D03*
%TD*%
D13*
%TO.C,U1*%
X88460000Y-141410000D03*
D11*
X91000000Y-141410000D03*
X93540000Y-141410000D03*
X96080000Y-141410000D03*
X98620000Y-141410000D03*
X101160000Y-141410000D03*
X103700000Y-141410000D03*
X106240000Y-141410000D03*
X108780000Y-141410000D03*
X111320000Y-141410000D03*
X113860000Y-141410000D03*
X116400000Y-141410000D03*
X118940000Y-141410000D03*
X121480000Y-141410000D03*
X124020000Y-141410000D03*
X126560000Y-141410000D03*
X129100000Y-141410000D03*
X131640000Y-141410000D03*
X134180000Y-141410000D03*
X136720000Y-141410000D03*
X139260000Y-141410000D03*
X141800000Y-141410000D03*
X144340000Y-141410000D03*
X146880000Y-141410000D03*
%TD*%
D14*
%TO.C,CN2*%
X155640000Y-71120000D03*
D15*
X155640000Y-73660000D03*
X155640000Y-76200000D03*
X155640000Y-78740000D03*
%TD*%
D13*
%TO.C,U2*%
X88460000Y-126180000D03*
D11*
X91000000Y-126180000D03*
X93540000Y-126180000D03*
X96080000Y-126180000D03*
X98620000Y-126180000D03*
X101160000Y-126180000D03*
X103700000Y-126180000D03*
X106240000Y-126180000D03*
X108780000Y-126180000D03*
X111320000Y-126180000D03*
X113860000Y-126180000D03*
X116400000Y-126180000D03*
X118940000Y-126180000D03*
X121480000Y-126180000D03*
X124020000Y-126180000D03*
X126560000Y-126180000D03*
X129100000Y-126180000D03*
X131640000Y-126180000D03*
X134180000Y-126180000D03*
X136720000Y-126180000D03*
X139260000Y-126180000D03*
X141800000Y-126180000D03*
X144340000Y-126180000D03*
X146880000Y-126180000D03*
%TD*%
M02*
